<?xml version="1.0" encoding="UTF-8"?>
<svg version="1.1" xmlns="http://www.w3.org/2000/svg" width="500" height="500" viewBox="0 0 500 500">
<path d="M0 0 C5.5926202 4.67341792 9.15579861 9.33350081 12 16 C12.67513989 17.46409647 13.36252336 18.92261401 14.0625 20.375 C14.51302734 21.34566406 14.51302734 21.34566406 14.97265625 22.3359375 C16.04448082 24.33052984 16.04448082 24.33052984 19 26 C19.40843923 28.71203652 19.13336867 31.2437142 19 34 C12.81379562 34.30652364 8.2728515 33.38568762 2.5 31.25 C0.89440882 30.69708335 -0.71238789 30.1476562 -2.3203125 29.6015625 C-5.12870026 28.64112807 -7.9359314 27.67760192 -10.7421875 26.7109375 C-29.34563027 21.14990837 -50.94624423 21.8306385 -69 29 C-69.99 29.66 -70.98 30.32 -72 31 C-71.23816406 30.80664062 -70.47632813 30.61328125 -69.69140625 30.4140625 C-68.14259766 30.02347656 -68.14259766 30.02347656 -66.5625 29.625 C-65.55316406 29.36976563 -64.54382813 29.11453125 -63.50390625 28.8515625 C-62.34761719 28.57054687 -61.19132812 28.28953125 -60 28 C-59.34765381 27.82355957 -58.69530762 27.64711914 -58.02319336 27.46533203 C-42.2826808 23.48324532 -24.25762353 24.80846328 -9 30 C-7.20316138 30.59646376 -5.40628368 31.19280983 -3.609375 31.7890625 C-0.82150497 32.71659898 1.9613765 33.6519991 4.73364258 34.62524414 C9.51818158 36.28754068 13.95638524 37.48674205 19 38 C19.04241723 40.33294775 19.04092937 42.66702567 19 45 C17.46307151 46.53692849 15.80743432 46.45484783 13.6796875 46.796875 C12.30538574 47.02407227 12.30538574 47.02407227 10.90332031 47.25585938 C9.90397461 47.41892578 8.90462891 47.58199219 7.875 47.75 C-3.25886732 49.62363798 -14.25446459 51.93951376 -25.27050781 54.40185547 C-28.74059401 55.16229475 -32.22081256 55.86647997 -35.70288086 56.56958008 C-53.68185648 60.22844025 -71.409764 65.4610874 -86 77 C-84.04357719 76.02639131 -82.09124784 75.04727443 -80.15087891 74.04199219 C-57.77275694 62.46964696 -33.57754259 58.18704849 -9.06115723 53.40338135 C-7.6722742 53.13156826 -6.28385231 52.85738951 -4.89587402 52.58099365 C-2.81445557 52.16686768 -0.73167202 51.76034863 1.3515625 51.35546875 C3.16261475 51.00005005 3.16261475 51.00005005 5.01025391 50.63745117 C9.97360845 49.84444427 14.99433637 49.45506033 20 49 C20 56.59 20 64.18 20 72 C18.46472656 72.61746094 16.92945313 73.23492187 15.34765625 73.87109375 C2.84224455 78.95577837 -9.2633131 84.32257716 -21 91 C-22.423125 91.79857422 -22.423125 91.79857422 -23.875 92.61328125 C-30.23783626 96.30173789 -36.1388964 100.56616802 -42 105 C-42.81210938 105.60457031 -43.62421875 106.20914063 -44.4609375 106.83203125 C-55.34505521 115.19765571 -65.56211413 124.7329011 -72 137 C-72 137.33 -72 137.66 -72 138 C-71.23429687 137.01773438 -71.23429687 137.01773438 -70.453125 136.015625 C-51.4776588 112.19535892 -26.98428584 94.85401771 1 83 C2.27810937 82.39904233 3.5527855 81.79073749 4.82421875 81.17578125 C5.46037109 80.86962891 6.09652344 80.56347656 6.75195312 80.24804688 C8.05641791 79.61753362 9.35846813 78.98200331 10.65820312 78.34179688 C14.09964285 76.69650102 16.10795794 76 20 76 C20.32320225 81.12227763 20.55796968 86.23855848 20.71411133 91.36865234 C20.77920754 93.10961262 20.86773109 94.8498694 20.98071289 96.58837891 C21.71261261 108.14643329 21.71261261 108.14643329 20 113 C16.11700478 116.9534941 12.06129067 118.73993395 7 121 C4.66081361 122.68534218 2.77770079 124.49147131 0.6875 126.5 C0.19443359 126.97300537 -0.29863281 127.44601074 -0.80664062 127.93334961 C-2.20969546 129.283446 -3.60512188 130.64145734 -5 132 C-5.69480469 132.60972656 -6.38960938 133.21945312 -7.10546875 133.84765625 C-17.5266818 143.28046559 -26.50870732 158.12253196 -32 171 C-32 172.32 -32 173.64 -32 175 C-31.61070312 174.23558594 -31.22140625 173.47117187 -30.8203125 172.68359375 C-24.50621053 160.59368883 -17.48452422 149.13366296 -8.06640625 139.19140625 C-6.18374375 137.19485868 -4.47489411 135.13174874 -2.75 133 C0.35819843 129.43321491 3.84786439 126.52974041 7.5625 123.625 C8.37605957 122.98111328 8.37605957 122.98111328 9.20605469 122.32421875 C12.68118205 119.68573515 15.86182118 118.28332958 20 117 C20.0154612 118.75646599 20.0154612 118.75646599 20.03123474 120.54841614 C20.128882 131.56992713 20.23160784 142.59138057 20.33933926 153.61279774 C20.39456427 159.27936151 20.44798367 164.94593044 20.49731445 170.61254883 C20.54496412 176.07849879 20.59730726 181.5443853 20.65294075 187.01025963 C20.67336155 189.09828809 20.69207509 191.18633396 20.70907402 193.27439308 C20.733124 196.19316539 20.76317792 199.11181752 20.79467773 202.03051758 C20.8004332 202.89870117 20.80618866 203.76688477 20.81211853 204.66137695 C20.85341035 208.01512633 20.93233341 210.79700023 22 214 C22.33 189.25 22.66 164.5 23 139 C35.19333263 142.04833316 43.57463531 157.3184916 49.8125 167.5 C53.73173777 174.04936455 56.56871989 180.75502962 59 188 C58.71052029 171.21017668 45.72762742 155.32153835 34.6953125 143.5859375 C32.30990383 141.29732802 30.22477014 139.85363409 27.375 138.25 C24.58814798 136.26961649 24.04967868 135.27754653 23.4362793 131.85058594 C23.37867432 130.57473633 23.32106934 129.29888672 23.26171875 127.984375 C23.21302391 126.93407104 23.21302391 126.93407104 23.16334534 125.86254883 C22.82832059 117.23790041 23.13123309 108.62084625 23.4375 100 C23.49092187 98.33856363 23.54365951 96.67710511 23.59570312 95.015625 C23.72262202 91.01011873 23.85865759 87.00502216 24 83 C35.306371 87.48095306 44.97351255 93.87608717 54.25390625 101.6953125 C56.04802464 103.20104486 57.86785281 104.67680032 59.71484375 106.1171875 C76.55279968 119.30732227 91.50176943 137.80376089 99 158 C97.72456852 138.44338392 77.75059943 118.44816732 64 106 C59.49213027 102.12611023 54.78331752 98.52504449 50 95 C49.44666992 94.59120605 48.89333984 94.18241211 48.32324219 93.76123047 C40.4525719 88.00203234 32.72354022 83.69729089 24 79 C24 69.1 24 59.2 24 49 C49.80793143 53.30132191 76.15364111 64.7609027 98 79 C98.64984863 79.41991211 99.29969727 79.83982422 99.96923828 80.27246094 C110.93297305 87.45453418 120.83698378 95.88497483 128 107 C116.26888605 79.45738464 80.34989132 65.57558896 54.4609375 54.97802734 C45.57738601 51.44752067 36.51504666 48.7154507 27.1953125 46.578125 C25 46 25 46 24 45 C23.85884839 42.32941149 23.95752893 39.67567762 24 37 C24.59135742 36.89695557 25.18271484 36.79391113 25.79199219 36.68774414 C32.47624315 35.44666246 38.80598901 33.58402839 45.25 31.4375 C47.14973635 30.80724963 49.05074846 30.18082941 50.953125 29.55859375 C51.77973633 29.28329834 52.60634766 29.00800293 53.45800781 28.72436523 C60.59143508 26.69162621 67.74138713 26.78044289 75.09301758 26.75976562 C77.16464119 26.75010658 79.23525101 26.71905276 81.30664062 26.6875 C89.34141578 26.62321023 96.3866681 27.37958247 104 30 C105.22074219 30.38542969 106.44148437 30.77085937 107.69921875 31.16796875 C108.68535156 31.50441406 109.67148437 31.84085938 110.6875 32.1875 C111.70199219 32.53167969 112.71648437 32.87585938 113.76171875 33.23046875 C114.50035156 33.48441406 115.23898437 33.73835938 116 34 C116 33.67 116 33.34 116 33 C95.42210325 21.47637782 70.9820639 21.64695428 48.7734375 27.62109375 C43.68549305 29.06284593 38.65204223 30.65614953 33.62109375 32.28515625 C30.245489 33.20577573 27.46762747 33.32257 24 33 C23.505 29.04 23.505 29.04 23 25 C21.02 24.505 21.02 24.505 19 24 C18.1367399 20.28111134 17.88278444 16.85703512 17.90234375 13.04296875 C17.90717773 11.37524414 17.90717773 11.37524414 17.91210938 9.67382812 C17.92467773 7.9480957 17.92467773 7.9480957 17.9375 6.1875 C17.94201172 5.01767578 17.94652344 3.84785156 17.95117188 2.64257812 C17.9629307 -0.23833358 17.97936574 -3.11914044 18 -6 C19.99954746 -6.04254356 22.00041636 -6.04080783 24 -6 C25.85965075 -4.14034925 25.24087549 -1.05110881 25.31640625 1.44140625 C25.37924805 3.39916992 25.37924805 3.39916992 25.44335938 5.39648438 C25.48317608 6.7851533 25.52288825 8.17382522 25.5625 9.5625 C25.60567989 10.95509183 25.649294 12.34767028 25.69335938 13.74023438 C25.79985876 17.16004801 25.90186923 20.57993763 26 24 C29.3776349 20.76513741 31.37210383 17.74575043 33.5 13.5625 C37.74899408 5.22867752 42.11771971 0.79790974 50 -4 C50.60585938 -4.40734375 51.21171875 -4.8146875 51.8359375 -5.234375 C60.50194516 -10.45668529 72.42258723 -9.77978428 82.03125 -7.85546875 C104.82560888 -1.28709428 125.04143141 15.81991551 137 36 C143.81735308 49.14775237 148.20268573 64.51531247 148.0625 79.375 C148.05347656 80.62023437 148.04445313 81.86546875 148.03515625 83.1484375 C148.01775391 84.55996094 148.01775391 84.55996094 148 86 C145.34870006 83.60195856 143.7380638 81.01217283 141.9375 77.9375 C131.81585036 61.89922843 114.10051177 50.64939713 97 43 C96.16855469 42.62617188 95.33710938 42.25234375 94.48046875 41.8671875 C87.71061334 39.09726096 81.31017745 37.99089043 74 39 C73.01 39.99 73.01 39.99 72 41 C72.07790319 45.12886922 72.53010072 47.387707 75.0625 50.6875 C82.50324382 56.54510684 91.97546406 59.88316748 101 62.5 C118.82423669 67.73916133 134.5310942 76.80968651 143.6875 93.36328125 C148.96392949 103.9632512 146.39632105 118.80584513 142.85742188 129.62304688 C134.66452442 152.33547558 134.66452442 152.33547558 130 157 C129.69707031 155.81664062 129.39414062 154.63328125 129.08203125 153.4140625 C124.35485567 135.38359152 115.97322118 120.30498636 104 106 C103.35933594 105.21367187 102.71867188 104.42734375 102.05859375 103.6171875 C92.28238131 92.13058799 71.16067028 72.30500764 55.67578125 70.76953125 C54.89589844 70.78371094 54.11601562 70.79789062 53.3125 70.8125 C52.52488281 70.81894531 51.73726562 70.82539063 50.92578125 70.83203125 C48.99300636 70.79266331 48.99300636 70.79266331 48 72 C47.62505127 75.8994668 47.47529301 78.20121077 49.66015625 81.52734375 C52.19332504 84.20429841 54.49294167 85.61224805 57.75 87.3125 C62.50036085 89.97566749 65.86259717 92.65317702 69.53125 96.6171875 C74.31219062 101.23170297 79.76655218 105.06356549 85.07421875 109.046875 C93.95748273 115.71642496 93.95748273 115.71642496 97.3125 119.6875 C99.14787445 121.85260622 100.97978035 123.97892772 102.9453125 126.02734375 C112.68122738 136.27868942 119.78789024 148.92714824 120.3125 163.3125 C119.9838308 167.19079651 119.2257956 170.32261319 118 174 C117.34 174 116.68 174 116 174 C115.75121094 174.72960937 115.50242187 175.45921875 115.24609375 176.2109375 C112.9677495 181.31042902 108.81769764 184.99538245 105 189 C104.54850586 189.47872559 104.09701172 189.95745117 103.63183594 190.45068359 C98.22707207 196.15740018 93.00843832 201.30464162 86 205 C85.34 205 84.68 205 84 205 C84.44004407 201.91969151 84.95761093 199.118002 86.01171875 196.18359375 C89.64189215 184.48955692 85.8666806 173.07124105 82 162 C81.66226563 160.97261719 81.32453125 159.94523438 80.9765625 158.88671875 C78.24027853 151.44937548 73.9807553 145.21395823 69.51879883 138.72753906 C66.41323435 134.19937001 63.64354422 129.69217943 61.125 124.8125 C56.88291275 116.70562654 52.05812859 110.02462729 43 107 C39.68225452 107.27218046 39.68225452 107.27218046 37 109 C35.11774146 117.73212723 39.21892602 124.87639895 43.69042969 132.04003906 C46.80663346 136.70388765 50.39496002 140.99228076 53.97265625 145.3046875 C65.62907949 159.38134742 79.52373923 177.13584214 78.5703125 196.36328125 C76.65784791 205.2051552 72.06269059 213.52105609 64.49609375 218.625 C58.66208709 221.83872511 52.4994335 224.09395536 46.25 226.359375 C38.01614181 229.4134181 31.5966442 233.10699785 25 239 C23.67684637 240.01343092 22.34670937 241.01808775 21 242 C20.47792969 241.41992188 19.95585937 240.83984375 19.41796875 240.2421875 C15.31828445 235.89120907 11.64488737 232.5800432 6.25 229.9375 C1.01086948 227.30325931 -1.7427111 224.41311028 -4 219 C-6.4252045 210.82087892 -4.70743147 204.42560912 -1 197 C0.19461481 195.0125228 1.40357297 193.03361292 2.625 191.0625 C7.41928872 183.05490856 8.95153796 174.29148827 8 165 C7.01464558 161.68846736 7.01464558 161.68846736 5 159 C1.71256453 158.33076238 1.71256453 158.33076238 -2 159 C-8.6068098 163.93520732 -12.59421791 173.16559494 -14.3125 181 C-16.18274916 194.00006522 -15.5802342 205.57769156 -11.09375 217.9375 C-10 221 -10 221 -10 223 C-15.77753464 222.48912475 -20.11471185 220.14755822 -25.125 217.4375 C-25.96522705 216.98785889 -26.8054541 216.53821777 -27.67114258 216.07495117 C-53.26968121 202.19095637 -53.26968121 202.19095637 -56 194 C-57.56129431 181.5901246 -54.24170137 173.51914685 -48 163 C-47.48050781 162.08089844 -46.96101563 161.16179687 -46.42578125 160.21484375 C-45.125 158 -45.125 158 -43 155 C-42.34 155 -41.68 155 -41 155 C-40.74734375 154.44054687 -40.4946875 153.88109375 -40.234375 153.3046875 C-33.92362053 141.52194972 -21.69093828 130.0827025 -11.0625 122.125 C-3.4630082 116.61966282 -3.4630082 116.61966282 0.4296875 108.4921875 C0.43662326 106.27968079 0.31901265 104.18751531 0 102 C-3.26824885 100.36587558 -6.46862289 100.47728325 -10 101 C-30.6605978 108.93782393 -45.14808727 130.49352381 -55.05419922 149.22705078 C-55.86539295 150.74767259 -56.71247588 152.24905372 -57.56640625 153.74609375 C-63.18013126 163.9513431 -64.39065087 175.52742668 -65 187 C-65.66 187 -66.32 187 -67 187 C-68.30932617 185.5222168 -68.30932617 185.5222168 -69.79296875 183.44921875 C-70.33743652 182.69342529 -70.8819043 181.93763184 -71.44287109 181.15893555 C-72.01859863 180.34336182 -72.59432617 179.52778809 -73.1875 178.6875 C-74.07042725 177.44770386 -74.07042725 177.44770386 -74.97119141 176.18286133 C-79.18006144 170.23938791 -83.28292369 164.26619348 -87 158 C-87.97646484 156.41445313 -87.97646484 156.41445313 -88.97265625 154.796875 C-94.01237577 146.18025714 -95.21254382 140.78290129 -93.1875 131.125 C-86.74736575 116.22842779 -69.80818992 106.80153332 -56.31640625 99.39453125 C-51.59267816 96.79259814 -46.9400502 94.08148264 -42.3125 91.3125 C-41.5582373 90.87309082 -40.80397461 90.43368164 -40.02685547 89.98095703 C-35.37638652 87.17556242 -32.12262517 84.47376107 -29 80 C-28.11994663 76.27302782 -28.11994663 76.27302782 -28 73 C-36.4115421 70.19615263 -42.93419403 72.66968976 -50.64453125 76.30078125 C-72.73327633 87.48658347 -88.12066983 106.24133966 -99 128 C-99.66 128 -100.32 128 -101 128 C-102.94742942 114.80133165 -104.30891795 101.72816267 -104.375 88.375 C-104.38853516 87.24473389 -104.40207031 86.11446777 -104.41601562 84.94995117 C-104.35876548 74.40081696 -101.4824847 68.43532619 -94 61 C-84.59832855 51.8704822 -68.39137577 49.62299491 -55.8984375 48.546875 C-54.50842529 48.42542114 -54.50842529 48.42542114 -53.09033203 48.30151367 C-51.23558664 48.14543702 -49.37973996 48.00180774 -47.52294922 47.87231445 C-42.0886873 47.43432766 -37.80940514 46.63970028 -33 44 C-31.94832473 41.42267086 -31.94832473 41.42267086 -32 39 C-36.71642433 36.59856195 -41.13809381 36.61518232 -46.3125 36.625 C-47.63568237 36.62741699 -47.63568237 36.62741699 -48.9855957 36.62988281 C-60.51428731 36.84178056 -71.8048033 39.49115075 -82 45 C-83.26263672 45.680625 -83.26263672 45.680625 -84.55078125 46.375 C-89.8453613 49.38702776 -93.81358245 52.60426157 -98 57 C-98.66 57 -99.32 57 -100 57 C-99.48919283 50.99801574 -97.67601911 46.36924735 -95 41 C-94.58878906 40.154375 -94.17757812 39.30875 -93.75390625 38.4375 C-86.06406211 23.44992842 -75.08920662 11.190567 -61 2 C-60.28457031 1.52433594 -59.56914062 1.04867187 -58.83203125 0.55859375 C-52.20252837 -3.73711895 -45.81211444 -6.31992098 -38.0625 -7.6875 C-37.39798828 -7.81705078 -36.73347656 -7.94660156 -36.04882812 -8.08007812 C-22.94072034 -10.48301932 -10.75988539 -8.02462833 0 0 Z " fill="currentColor" transform="translate(229,125)"/>
</svg>
