<?xml version="1.0" encoding="UTF-8"?>
<svg version="1.1" xmlns="http://www.w3.org/2000/svg" width="500" height="500">
<path d="M0 0 C165 0 330 0 500 0 C500 165 500 330 500 500 C335 500 170 500 0 500 C0 335 0 170 0 0 Z " fill="#FDFDFD" transform="translate(0,0)"/>
<path d="M0 0 C5.5926202 4.67341792 9.15579861 9.33350081 12 16 C12.67513989 17.46409647 13.36252336 18.92261401 14.0625 20.375 C14.51302734 21.34566406 14.51302734 21.34566406 14.97265625 22.3359375 C16.04448082 24.33052984 16.04448082 24.33052984 19 26 C19.40843923 28.71203652 19.13336867 31.2437142 19 34 C12.81379562 34.30652364 8.2728515 33.38568762 2.5 31.25 C0.89440882 30.69708335 -0.71238789 30.1476562 -2.3203125 29.6015625 C-5.12870026 28.64112807 -7.9359314 27.67760192 -10.7421875 26.7109375 C-29.34563027 21.14990837 -50.94624423 21.8306385 -69 29 C-69.99 29.66 -70.98 30.32 -72 31 C-71.23816406 30.80664062 -70.47632813 30.61328125 -69.69140625 30.4140625 C-68.14259766 30.02347656 -68.14259766 30.02347656 -66.5625 29.625 C-65.55316406 29.36976563 -64.54382813 29.11453125 -63.50390625 28.8515625 C-62.34761719 28.57054687 -61.19132812 28.28953125 -60 28 C-59.34765381 27.82355957 -58.69530762 27.64711914 -58.02319336 27.46533203 C-42.2826808 23.48324532 -24.25762353 24.80846328 -9 30 C-7.20316138 30.59646376 -5.40628368 31.19280983 -3.609375 31.7890625 C-0.82150497 32.71659898 1.9613765 33.6519991 4.73364258 34.62524414 C9.51818158 36.28754068 13.95638524 37.48674205 19 38 C19.04241723 40.33294775 19.04092937 42.66702567 19 45 C17.46307151 46.53692849 15.80743432 46.45484783 13.6796875 46.796875 C12.30538574 47.02407227 12.30538574 47.02407227 10.90332031 47.25585938 C9.90397461 47.41892578 8.90462891 47.58199219 7.875 47.75 C-3.25886732 49.62363798 -14.25446459 51.93951376 -25.27050781 54.40185547 C-28.74059401 55.16229475 -32.22081256 55.86647997 -35.70288086 56.56958008 C-53.68185648 60.22844025 -71.409764 65.4610874 -86 77 C-84.04357719 76.02639131 -82.09124784 75.04727443 -80.15087891 74.04199219 C-57.77275694 62.46964696 -33.57754259 58.18704849 -9.06115723 53.40338135 C-7.6722742 53.13156826 -6.28385231 52.85738951 -4.89587402 52.58099365 C-2.81445557 52.16686768 -0.73167202 51.76034863 1.3515625 51.35546875 C3.16261475 51.00005005 3.16261475 51.00005005 5.01025391 50.63745117 C9.97360845 49.84444427 14.99433637 49.45506033 20 49 C20 56.59 20 64.18 20 72 C18.46472656 72.61746094 16.92945313 73.23492187 15.34765625 73.87109375 C2.84224455 78.95577837 -9.2633131 84.32257716 -21 91 C-22.423125 91.79857422 -22.423125 91.79857422 -23.875 92.61328125 C-30.23783626 96.30173789 -36.1388964 100.56616802 -42 105 C-42.81210938 105.60457031 -43.62421875 106.20914063 -44.4609375 106.83203125 C-55.34505521 115.19765571 -65.56211413 124.7329011 -72 137 C-72 137.33 -72 137.66 -72 138 C-71.23429687 137.01773438 -71.23429687 137.01773438 -70.453125 136.015625 C-51.4776588 112.19535892 -26.98428584 94.85401771 1 83 C2.27810937 82.39904233 3.5527855 81.79073749 4.82421875 81.17578125 C5.46037109 80.86962891 6.09652344 80.56347656 6.75195312 80.24804688 C8.05641791 79.61753362 9.35846813 78.98200331 10.65820312 78.34179688 C14.09964285 76.69650102 16.10795794 76 20 76 C20.32320225 81.12227763 20.55796968 86.23855848 20.71411133 91.36865234 C20.77920754 93.10961262 20.86773109 94.8498694 20.98071289 96.58837891 C21.71261261 108.14643329 21.71261261 108.14643329 20 113 C16.11700478 116.9534941 12.06129067 118.73993395 7 121 C4.66081361 122.68534218 2.77770079 124.49147131 0.6875 126.5 C0.19443359 126.97300537 -0.29863281 127.44601074 -0.80664062 127.93334961 C-2.20969546 129.283446 -3.60512188 130.64145734 -5 132 C-5.69480469 132.60972656 -6.38960938 133.21945312 -7.10546875 133.84765625 C-17.5266818 143.28046559 -26.50870732 158.12253196 -32 171 C-32 172.32 -32 173.64 -32 175 C-31.61070312 174.23558594 -31.22140625 173.47117187 -30.8203125 172.68359375 C-24.50621053 160.59368883 -17.48452422 149.13366296 -8.06640625 139.19140625 C-6.18374375 137.19485868 -4.47489411 135.13174874 -2.75 133 C0.35819843 129.43321491 3.84786439 126.52974041 7.5625 123.625 C8.37605957 122.98111328 8.37605957 122.98111328 9.20605469 122.32421875 C12.68118205 119.68573515 15.86182118 118.28332958 20 117 C20.0154612 118.75646599 20.0154612 118.75646599 20.03123474 120.54841614 C20.128882 131.56992713 20.23160784 142.59138057 20.33933926 153.61279774 C20.39456427 159.27936151 20.44798367 164.94593044 20.49731445 170.61254883 C20.54496412 176.07849879 20.59730726 181.5443853 20.65294075 187.01025963 C20.67336155 189.09828809 20.69207509 191.18633396 20.70907402 193.27439308 C20.733124 196.19316539 20.76317792 199.11181752 20.79467773 202.03051758 C20.8004332 202.89870117 20.80618866 203.76688477 20.81211853 204.66137695 C20.85341035 208.01512633 20.93233341 210.79700023 22 214 C22.33 189.25 22.66 164.5 23 139 C35.19333263 142.04833316 43.57463531 157.3184916 49.8125 167.5 C53.73173777 174.04936455 56.56871989 180.75502962 59 188 C58.71052029 171.21017668 45.72762742 155.32153835 34.6953125 143.5859375 C32.30990383 141.29732802 30.22477014 139.85363409 27.375 138.25 C24.58814798 136.26961649 24.04967868 135.27754653 23.4362793 131.85058594 C23.37867432 130.57473633 23.32106934 129.29888672 23.26171875 127.984375 C23.21302391 126.93407104 23.21302391 126.93407104 23.16334534 125.86254883 C22.82832059 117.23790041 23.13123309 108.62084625 23.4375 100 C23.49092187 98.33856363 23.54365951 96.67710511 23.59570312 95.015625 C23.72262202 91.01011873 23.85865759 87.00502216 24 83 C35.306371 87.48095306 44.97351255 93.87608717 54.25390625 101.6953125 C56.04802464 103.20104486 57.86785281 104.67680032 59.71484375 106.1171875 C76.55279968 119.30732227 91.50176943 137.80376089 99 158 C97.72456852 138.44338392 77.75059943 118.44816732 64 106 C59.49213027 102.12611023 54.78331752 98.52504449 50 95 C49.44666992 94.59120605 48.89333984 94.18241211 48.32324219 93.76123047 C40.4525719 88.00203234 32.72354022 83.69729089 24 79 C24 69.1 24 59.2 24 49 C49.80793143 53.30132191 76.15364111 64.7609027 98 79 C98.64984863 79.41991211 99.29969727 79.83982422 99.96923828 80.27246094 C110.93297305 87.45453418 120.83698378 95.88497483 128 107 C116.26888605 79.45738464 80.34989132 65.57558896 54.4609375 54.97802734 C45.57738601 51.44752067 36.51504666 48.7154507 27.1953125 46.578125 C25 46 25 46 24 45 C23.85884839 42.32941149 23.95752893 39.67567762 24 37 C24.59135742 36.89695557 25.18271484 36.79391113 25.79199219 36.68774414 C32.47624315 35.44666246 38.80598901 33.58402839 45.25 31.4375 C47.14973635 30.80724963 49.05074846 30.18082941 50.953125 29.55859375 C51.77973633 29.28329834 52.60634766 29.00800293 53.45800781 28.72436523 C60.59143508 26.69162621 67.74138713 26.78044289 75.09301758 26.75976562 C77.16464119 26.75010658 79.23525101 26.71905276 81.30664062 26.6875 C89.34141578 26.62321023 96.3866681 27.37958247 104 30 C105.22074219 30.38542969 106.44148437 30.77085937 107.69921875 31.16796875 C108.68535156 31.50441406 109.67148437 31.84085938 110.6875 32.1875 C111.70199219 32.53167969 112.71648437 32.87585938 113.76171875 33.23046875 C114.50035156 33.48441406 115.23898437 33.73835938 116 34 C116 33.67 116 33.34 116 33 C95.42210325 21.47637782 70.9820639 21.64695428 48.7734375 27.62109375 C43.68549305 29.06284593 38.65204223 30.65614953 33.62109375 32.28515625 C30.245489 33.20577573 27.46762747 33.32257 24 33 C23.505 29.04 23.505 29.04 23 25 C21.02 24.505 21.02 24.505 19 24 C18.1367399 20.28111134 17.88278444 16.85703512 17.90234375 13.04296875 C17.90717773 11.37524414 17.90717773 11.37524414 17.91210938 9.67382812 C17.92467773 7.9480957 17.92467773 7.9480957 17.9375 6.1875 C17.94201172 5.01767578 17.94652344 3.84785156 17.95117188 2.64257812 C17.9629307 -0.23833358 17.97936574 -3.11914044 18 -6 C19.99954746 -6.04254356 22.00041636 -6.04080783 24 -6 C25.85965075 -4.14034925 25.24087549 -1.05110881 25.31640625 1.44140625 C25.37924805 3.39916992 25.37924805 3.39916992 25.44335938 5.39648438 C25.48317608 6.7851533 25.52288825 8.17382522 25.5625 9.5625 C25.60567989 10.95509183 25.649294 12.34767028 25.69335938 13.74023438 C25.79985876 17.16004801 25.90186923 20.57993763 26 24 C29.3776349 20.76513741 31.37210383 17.74575043 33.5 13.5625 C37.74899408 5.22867752 42.11771971 0.79790974 50 -4 C50.60585938 -4.40734375 51.21171875 -4.8146875 51.8359375 -5.234375 C60.50194516 -10.45668529 72.42258723 -9.77978428 82.03125 -7.85546875 C104.82560888 -1.28709428 125.04143141 15.81991551 137 36 C143.81735308 49.14775237 148.20268573 64.51531247 148.0625 79.375 C148.05347656 80.62023437 148.04445313 81.86546875 148.03515625 83.1484375 C148.01775391 84.55996094 148.01775391 84.55996094 148 86 C145.34870006 83.60195856 143.7380638 81.01217283 141.9375 77.9375 C131.81585036 61.89922843 114.10051177 50.64939713 97 43 C96.16855469 42.62617188 95.33710938 42.25234375 94.48046875 41.8671875 C87.71061334 39.09726096 81.31017745 37.99089043 74 39 C73.01 39.99 73.01 39.99 72 41 C72.07790319 45.12886922 72.53010072 47.387707 75.0625 50.6875 C82.50324382 56.54510684 91.97546406 59.88316748 101 62.5 C118.82423669 67.73916133 134.5310942 76.80968651 143.6875 93.36328125 C148.96392949 103.9632512 146.39632105 118.80584513 142.85742188 129.62304688 C134.66452442 152.33547558 134.66452442 152.33547558 130 157 C129.69707031 155.81664062 129.39414062 154.63328125 129.08203125 153.4140625 C124.35485567 135.38359152 115.97322118 120.30498636 104 106 C103.35933594 105.21367187 102.71867188 104.42734375 102.05859375 103.6171875 C92.28238131 92.13058799 71.16067028 72.30500764 55.67578125 70.76953125 C54.89589844 70.78371094 54.11601562 70.79789062 53.3125 70.8125 C52.52488281 70.81894531 51.73726562 70.82539063 50.92578125 70.83203125 C48.99300636 70.79266331 48.99300636 70.79266331 48 72 C47.62505127 75.8994668 47.47529301 78.20121077 49.66015625 81.52734375 C52.19332504 84.20429841 54.49294167 85.61224805 57.75 87.3125 C62.50036085 89.97566749 65.86259717 92.65317702 69.53125 96.6171875 C74.31219062 101.23170297 79.76655218 105.06356549 85.07421875 109.046875 C93.95748273 115.71642496 93.95748273 115.71642496 97.3125 119.6875 C99.14787445 121.85260622 100.97978035 123.97892772 102.9453125 126.02734375 C112.68122738 136.27868942 119.78789024 148.92714824 120.3125 163.3125 C119.9838308 167.19079651 119.2257956 170.32261319 118 174 C117.34 174 116.68 174 116 174 C115.75121094 174.72960937 115.50242187 175.45921875 115.24609375 176.2109375 C112.9677495 181.31042902 108.81769764 184.99538245 105 189 C104.54850586 189.47872559 104.09701172 189.95745117 103.63183594 190.45068359 C98.22707207 196.15740018 93.00843832 201.30464162 86 205 C85.34 205 84.68 205 84 205 C84.44004407 201.91969151 84.95761093 199.118002 86.01171875 196.18359375 C89.64189215 184.48955692 85.8666806 173.07124105 82 162 C81.66226563 160.97261719 81.32453125 159.94523438 80.9765625 158.88671875 C78.24027853 151.44937548 73.9807553 145.21395823 69.51879883 138.72753906 C66.41323435 134.19937001 63.64354422 129.69217943 61.125 124.8125 C56.88291275 116.70562654 52.05812859 110.02462729 43 107 C39.68225452 107.27218046 39.68225452 107.27218046 37 109 C35.11774146 117.73212723 39.21892602 124.87639895 43.69042969 132.04003906 C46.80663346 136.70388765 50.39496002 140.99228076 53.97265625 145.3046875 C65.62907949 159.38134742 79.52373923 177.13584214 78.5703125 196.36328125 C76.65784791 205.2051552 72.06269059 213.52105609 64.49609375 218.625 C58.66208709 221.83872511 52.4994335 224.09395536 46.25 226.359375 C38.01614181 229.4134181 31.5966442 233.10699785 25 239 C23.67684637 240.01343092 22.34670937 241.01808775 21 242 C20.47792969 241.41992188 19.95585937 240.83984375 19.41796875 240.2421875 C15.31828445 235.89120907 11.64488737 232.5800432 6.25 229.9375 C1.01086948 227.30325931 -1.7427111 224.41311028 -4 219 C-6.4252045 210.82087892 -4.70743147 204.42560912 -1 197 C0.19461481 195.0125228 1.40357297 193.03361292 2.625 191.0625 C7.41928872 183.05490856 8.95153796 174.29148827 8 165 C7.01464558 161.68846736 7.01464558 161.68846736 5 159 C1.71256453 158.33076238 1.71256453 158.33076238 -2 159 C-8.6068098 163.93520732 -12.59421791 173.16559494 -14.3125 181 C-16.18274916 194.00006522 -15.5802342 205.57769156 -11.09375 217.9375 C-10 221 -10 221 -10 223 C-15.77753464 222.48912475 -20.11471185 220.14755822 -25.125 217.4375 C-25.96522705 216.98785889 -26.8054541 216.53821777 -27.67114258 216.07495117 C-53.26968121 202.19095637 -53.26968121 202.19095637 -56 194 C-57.56129431 181.5901246 -54.24170137 173.51914685 -48 163 C-47.48050781 162.08089844 -46.96101563 161.16179687 -46.42578125 160.21484375 C-45.125 158 -45.125 158 -43 155 C-42.34 155 -41.68 155 -41 155 C-40.74734375 154.44054687 -40.4946875 153.88109375 -40.234375 153.3046875 C-33.92362053 141.52194972 -21.69093828 130.0827025 -11.0625 122.125 C-3.4630082 116.61966282 -3.4630082 116.61966282 0.4296875 108.4921875 C0.43662326 106.27968079 0.31901265 104.18751531 0 102 C-3.26824885 100.36587558 -6.46862289 100.47728325 -10 101 C-30.6605978 108.93782393 -45.14808727 130.49352381 -55.05419922 149.22705078 C-55.86539295 150.74767259 -56.71247588 152.24905372 -57.56640625 153.74609375 C-63.18013126 163.9513431 -64.39065087 175.52742668 -65 187 C-65.66 187 -66.32 187 -67 187 C-68.30932617 185.5222168 -68.30932617 185.5222168 -69.79296875 183.44921875 C-70.33743652 182.69342529 -70.8819043 181.93763184 -71.44287109 181.15893555 C-72.01859863 180.34336182 -72.59432617 179.52778809 -73.1875 178.6875 C-74.07042725 177.44770386 -74.07042725 177.44770386 -74.97119141 176.18286133 C-79.18006144 170.23938791 -83.28292369 164.26619348 -87 158 C-87.97646484 156.41445313 -87.97646484 156.41445313 -88.97265625 154.796875 C-94.01237577 146.18025714 -95.21254382 140.78290129 -93.1875 131.125 C-86.74736575 116.22842779 -69.80818992 106.80153332 -56.31640625 99.39453125 C-51.59267816 96.79259814 -46.9400502 94.08148264 -42.3125 91.3125 C-41.5582373 90.87309082 -40.80397461 90.43368164 -40.02685547 89.98095703 C-35.37638652 87.17556242 -32.12262517 84.47376107 -29 80 C-28.11994663 76.27302782 -28.11994663 76.27302782 -28 73 C-36.4115421 70.19615263 -42.93419403 72.66968976 -50.64453125 76.30078125 C-72.73327633 87.48658347 -88.12066983 106.24133966 -99 128 C-99.66 128 -100.32 128 -101 128 C-102.94742942 114.80133165 -104.30891795 101.72816267 -104.375 88.375 C-104.38853516 87.24473389 -104.40207031 86.11446777 -104.41601562 84.94995117 C-104.35876548 74.40081696 -101.4824847 68.43532619 -94 61 C-84.59832855 51.8704822 -68.39137577 49.62299491 -55.8984375 48.546875 C-54.50842529 48.42542114 -54.50842529 48.42542114 -53.09033203 48.30151367 C-51.23558664 48.14543702 -49.37973996 48.00180774 -47.52294922 47.87231445 C-42.0886873 47.43432766 -37.80940514 46.63970028 -33 44 C-31.94832473 41.42267086 -31.94832473 41.42267086 -32 39 C-36.71642433 36.59856195 -41.13809381 36.61518232 -46.3125 36.625 C-47.63568237 36.62741699 -47.63568237 36.62741699 -48.9855957 36.62988281 C-60.51428731 36.84178056 -71.8048033 39.49115075 -82 45 C-83.26263672 45.680625 -83.26263672 45.680625 -84.55078125 46.375 C-89.8453613 49.38702776 -93.81358245 52.60426157 -98 57 C-98.66 57 -99.32 57 -100 57 C-99.48919283 50.99801574 -97.67601911 46.36924735 -95 41 C-94.58878906 40.154375 -94.17757812 39.30875 -93.75390625 38.4375 C-86.06406211 23.44992842 -75.08920662 11.190567 -61 2 C-60.28457031 1.52433594 -59.56914062 1.04867187 -58.83203125 0.55859375 C-52.20252837 -3.73711895 -45.81211444 -6.31992098 -38.0625 -7.6875 C-37.39798828 -7.81705078 -36.73347656 -7.94660156 -36.04882812 -8.08007812 C-22.94072034 -10.48301932 -10.75988539 -8.02462833 0 0 Z " fill="#070707" transform="translate(229,125)"/>
<path d="M0 0 C0.33 0 0.66 0 1 0 C1 1.65 1 3.3 1 5 C2.65 5.33 4.3 5.66 6 6 C6 8.64 6 11.28 6 14 C13.33354195 12.66109608 20.5135097 11.26314257 27.625 9 C44.25804256 3.7644176 61.84907763 1.2737515 79 6 C79.94166016 6.24991699 79.94166016 6.24991699 80.90234375 6.50488281 C83.04679855 7.08292719 85.18009516 7.69154487 87.3125 8.3125 C87.98321533 8.50094482 88.65393066 8.68938965 89.3449707 8.88354492 C94.28675598 10.41154419 97.27701637 12.55407562 101 16 C98.15505099 16 96.58224265 15.63701253 93.9453125 14.72265625 C93.16542969 14.45646484 92.38554687 14.19027344 91.58203125 13.91601562 C90.77121094 13.63435547 89.96039063 13.35269531 89.125 13.0625 C87.52442672 12.50885065 85.92288621 11.95798828 84.3203125 11.41015625 C83.61148926 11.16402588 82.90266602 10.91789551 82.17236328 10.66430664 C75.55099494 8.63949845 68.95025177 8.77905215 62.09228516 8.75976562 C60.03375287 8.75015754 57.97626308 8.71914325 55.91796875 8.6875 C43.15781181 8.58341665 31.91332427 11.317299 20.11132812 16.01367188 C15.1899673 17.86789564 11.26157704 18.26514106 6 18 C6.495 21.96 6.495 21.96 7 26 C8.25490234 26.34611328 8.25490234 26.34611328 9.53515625 26.69921875 C44.47272157 36.48792753 90.43429555 51.95728552 110.06640625 84.8984375 C110.37449219 85.59195313 110.68257812 86.28546875 111 87 C110.67 87.66 110.34 88.32 110 89 C109.443125 88.29875 108.88625 87.5975 108.3125 86.875 C105.90897393 83.88683245 103.46689785 80.93603848 101 78 C100.42378906 77.31035156 99.84757813 76.62070313 99.25390625 75.91015625 C92.43328805 68.45945785 83.46866318 63.35784217 75 58 C73.92363281 57.29875 72.84726562 56.5975 71.73828125 55.875 C51.75356119 43.59245758 28.34825337 36.49223003 6 30 C6.33 39.9 6.66 49.8 7 60 C8.98 60.9075 10.96 61.815 13 62.75 C21.83268598 67.0365896 29.37614248 72.87281479 37 79 C37.58700684 79.46986328 38.17401367 79.93972656 38.77880859 80.42382812 C51.75087596 90.89081619 62.85214044 102.01981833 72 116 C72.38736328 116.59055176 72.77472656 117.18110352 73.17382812 117.78955078 C82.4651713 132.09208793 82.4651713 132.09208793 82 140 C78.75868978 138.37934489 77.92135698 134.91387261 76.4375 131.75 C68.31237837 115.05744682 56.48695328 99.69042116 42 88 C41.48179687 87.5762207 40.96359375 87.15244141 40.4296875 86.71582031 C31.16796117 79.16159262 21.69748406 72.50725326 11.16796875 66.80078125 C10.19496826 66.27266846 9.22196777 65.74455566 8.21948242 65.20043945 C7.48705322 64.80429443 6.75462402 64.40814941 6 64 C5.97514348 69.95906272 5.95706623 75.91809475 5.94506836 81.87719727 C5.94006262 83.90129116 5.93325604 85.92538148 5.92456055 87.94946289 C5.91232941 90.87126552 5.90673395 93.79302004 5.90234375 96.71484375 C5.89718246 97.60896469 5.89202118 98.50308563 5.88670349 99.42430115 C5.3583501 109.4703586 5.3583501 109.4703586 8.93359375 118.2421875 C9.75988281 118.78101563 10.58617187 119.31984375 11.4375 119.875 C24.36331445 129.27559233 38.80483756 146.74524054 41.51171875 163.08984375 C41.59873047 164.49943359 41.59873047 164.49943359 41.6875 165.9375 C41.78611328 167.37416016 41.78611328 167.37416016 41.88671875 168.83984375 C41.94279297 169.90912109 41.94279297 169.90912109 42 171 C39.19561688 168.19561688 38.26893574 164.76367461 36.875 161.125 C32.34955235 149.7442662 25.64265485 140.5287599 18 131 C17.319375 130.0925 16.63875 129.185 15.9375 128.25 C12.81240547 124.62085797 9.6165518 121.5388506 5 120 C5 145.08 5 170.16 5 196 C3 195 3 195 2 192 C1.90825676 189.00225108 1.87406097 186.02815053 1.88647461 183.03051758 C1.88632858 182.11324387 1.88618256 181.19597015 1.8860321 180.25090027 C1.88672943 177.21541997 1.89451344 174.18000084 1.90234375 171.14453125 C1.90420857 169.04131606 1.90563217 166.93810043 1.90663147 164.83488464 C1.91045161 159.29630334 1.92027763 153.7577482 1.93133545 148.21917725 C1.94156036 142.56864781 1.94613141 136.91811415 1.95117188 131.26757812 C1.96190032 120.17837391 1.97897074 109.08918913 2 98 C0.40286027 98.9457688 -1.192701 99.89420349 -2.78759766 100.84375 C-3.67629547 101.37162109 -4.56499329 101.89949219 -5.48062134 102.44335938 C-25.98207078 115.11052591 -39.76138445 136.77136194 -50 158 C-50.33 158 -50.66 158 -51 158 C-51.40052025 152.92417611 -50.18391215 149.53268722 -47.75 145.1875 C-47.39357422 144.54224365 -47.03714844 143.8969873 -46.66992188 143.23217773 C-35.20586102 123.00276578 -20.08071095 104.54035548 1 94 C1.33 81.79 1.66 69.58 2 57 C-8.39984518 60.92988076 -8.39984518 60.92988076 -17.859375 65.8359375 C-20.01549841 67.00842797 -22.13300318 67.84878857 -24.4375 68.6875 C-50.38623277 78.78537895 -75.44957386 98.92517412 -91 122 C-91.33 121.34 -91.66 120.68 -92 120 C-88.56183556 112.22675867 -82.81724765 106.05410627 -77 100 C-76.24976563 99.18660156 -75.49953125 98.37320313 -74.7265625 97.53515625 C-65.25892956 87.57998739 -53.93731917 79.72232197 -42 73 C-40.82099207 72.30835173 -39.64266004 71.61555058 -38.46484375 70.921875 C-31.34977728 66.77447087 -24.14275592 62.99344783 -16.625 59.625 C-15.91279297 59.30354004 -15.20058594 58.98208008 -14.46679688 58.65087891 C-9.00897236 56.26591542 -3.8034792 54.74104376 2 53 C2 45.41 2 37.82 2 30 C1.34 30.33 0.68 30.66 0 31 C-2.56056444 31.42624965 -5.11904026 31.81474143 -7.6875 32.1875 C-26.33445511 35.0333156 -44.93771494 38.59032105 -63.25 43.125 C-64.18223389 43.35421143 -65.11446777 43.58342285 -66.07495117 43.81958008 C-75.64039269 46.26627091 -84.67478181 49.57496074 -93.4375 54.125 C-94.11748047 54.47175781 -94.79746094 54.81851563 -95.49804688 55.17578125 C-97.3342998 56.11275489 -99.1673115 57.05607348 -101 58 C-102.33206832 58.66919072 -103.66462379 59.33743482 -105 60 C-101.70589573 51.69234143 -90.2482293 47.87323694 -82.47265625 44.49389648 C-74.23612095 41.10017452 -65.66270076 38.9972773 -57 37 C-55.2984375 36.60554688 -55.2984375 36.60554688 -53.5625 36.203125 C-50.77088254 35.58732703 -47.97551944 35.00067345 -45.17285156 34.4375 C-42.51743104 33.90283555 -39.86436512 33.35696735 -37.2109375 32.8125 C-24.84339753 30.29162494 -12.46919473 27.95876239 0 26 C0.33 23.69 0.66 21.38 1 19 C0.04996094 19.06703125 -0.90007812 19.1340625 -1.87890625 19.203125 C-6.9066971 19.19807828 -11.25815438 17.4372332 -15.9375 15.75 C-17.82694885 15.10461926 -19.71758734 14.46271128 -21.609375 13.82421875 C-22.53298828 13.51145996 -23.45660156 13.19870117 -24.40820312 12.87646484 C-25.26349609 12.58723145 -26.11878906 12.29799805 -27 12 C-27.69802734 11.76104004 -28.39605469 11.52208008 -29.11523438 11.27587891 C-47.51738037 5.1623191 -67.64204287 6.57754291 -86 12 C-87.66229813 12.35447682 -89.32748844 12.69735505 -91 13 C-85.09094929 5.94531701 -74.51302147 4.53946232 -65.77148438 3.68408203 C-49.23257027 2.65927525 -34.6128694 4.60862789 -19 10 C-17.14761719 10.62068359 -17.14761719 10.62068359 -15.2578125 11.25390625 C-13.31198449 11.91141173 -11.36872851 12.576647 -9.4296875 13.25390625 C-5.95308734 14.32147961 -2.61961545 14.72156804 1 15 C0.87625 13.72125 0.7525 12.4425 0.625 11.125 C0.52058594 10.04605469 0.52058594 10.04605469 0.4140625 8.9453125 C0.13625251 6.77331755 0.13625251 6.77331755 -2 5 C-1.34 5 -0.68 5 0 5 C0 3.35 0 1.7 0 0 Z " fill="#E7E7E7" transform="translate(247,144)"/>
<path d="M0 0 C6.50475854 1.02643896 12.12307119 4.1637913 18 7 C19.17949219 7.56332031 20.35898437 8.12664062 21.57421875 8.70703125 C39.40436367 17.39652982 61.56997482 30.02362534 70 49 C69.505 49.99 69.505 49.99 69 51 C68.443125 50.29875 67.88625 49.5975 67.3125 48.875 C64.90897393 45.88683245 62.46689785 42.93603848 60 40 C59.42378906 39.31035156 58.84757812 38.62070313 58.25390625 37.91015625 C51.44159091 30.46852772 42.47637236 25.32795194 34 20 C33.38850098 19.61279785 32.77700195 19.2255957 32.14697266 18.82666016 C21.68397938 12.28162102 10.38810575 7.66869952 -1 3 C-0.67 2.01 -0.34 1.02 0 0 Z " fill="#DFDFDF" transform="translate(288,182)"/>
<path d="M0 0 C1.70403454 0.56758612 3.40844624 1.13404152 5.11328125 1.69921875 C6.408984 2.13242436 7.70460817 2.56586553 9 3 C8.67 3.66 8.34 4.32 8 5 C9.65 5.66 11.3 6.32 13 7 C9.77137276 8.07771343 8.0794823 7.94851358 4.9453125 6.671875 C4.17372803 6.36773682 3.40214355 6.06359863 2.60717773 5.75024414 C1.78805908 5.42016357 0.96894043 5.09008301 0.125 4.75 C-21.98246082 -3.64705322 -44.21071859 -4.73135358 -67 2 C-68.66229813 2.35447682 -70.32748844 2.69735505 -72 3 C-56.93682083 -14.98359146 -18.6459518 -6.41643519 0 0 Z " fill="#EBEBEB" transform="translate(228,154)"/>
<path d="M0 0 C0.66 0.33 1.32 0.66 2 1 C0.50260417 2.171875 -0.99479167 3.34375 -2.4921875 4.515625 C-4.10373169 5.93555229 -4.10373169 5.93555229 -4.94140625 7.94921875 C-6.25614066 10.49621346 -7.84664888 11.75308365 -10.0625 13.5625 C-15.41382334 18.19345289 -19.69207656 23.40509407 -24 29 C-24.66902344 29.85335938 -25.33804688 30.70671875 -26.02734375 31.5859375 C-30.58649531 37.59860074 -34.34729172 43.90145289 -37.94335938 50.51831055 C-39.76876989 53.87304072 -41.58410054 57.02013663 -44 60 C-44.40052025 54.92417611 -43.18391215 51.53268722 -40.75 47.1875 C-40.39357422 46.54224365 -40.03714844 45.8969873 -39.66992188 45.23217773 C-29.58082828 27.42902463 -16.71841678 11.94212091 0 0 Z " fill="#E6E6E6" transform="translate(240,242)"/>
<path d="M0 0 C1.99954746 -0.04254356 4.00041636 -0.04080783 6 0 C7 1 7 1 7.11352539 3.86743164 C7.10828857 5.11903076 7.10305176 6.37062988 7.09765625 7.66015625 C7.0962413 8.32462265 7.09482635 8.98908905 7.09336853 9.6736908 C7.08775518 11.80333899 7.07520054 13.93288339 7.0625 16.0625 C7.05748671 17.50325369 7.05292351 18.94400903 7.04882812 20.38476562 C7.03778145 23.92321102 7.02050792 27.46159539 7 31 C5.02 30.67 3.04 30.34 1 30 C0.1367399 26.28111134 -0.11721556 22.85703512 -0.09765625 19.04296875 C-0.09443359 17.93115234 -0.09121094 16.81933594 -0.08789062 15.67382812 C-0.07951172 14.52333984 -0.07113281 13.37285156 -0.0625 12.1875 C-0.05798828 11.01767578 -0.05347656 9.84785156 -0.04882812 8.64257812 C-0.0370693 5.76166642 -0.02063426 2.88085956 0 0 Z " fill="#191919" transform="translate(247,119)"/>
<path d="M0 0 C14.59600808 9.66272043 25.95483474 25.61644702 32 42 C32.51171875 45.08984375 32.51171875 45.08984375 32.6875 47.9375 C32.78611328 49.37416016 32.78611328 49.37416016 32.88671875 50.83984375 C32.94279297 51.90912109 32.94279297 51.90912109 33 53 C30.19561688 50.19561688 29.26893574 46.76367461 27.875 43.125 C23.34955235 31.7442662 16.64265485 22.5287599 9 13 C8.319375 12.0925 7.63875 11.185 6.9375 10.25 C4.52647132 7.45009572 1.8905822 5.29932675 -1 3 C-0.67 2.01 -0.34 1.02 0 0 Z " fill="#DDDDDD" transform="translate(256,262)"/>
<path d="M0 0 C0.62777344 0.16661133 1.25554687 0.33322266 1.90234375 0.50488281 C4.04679855 1.08292719 6.18009516 1.69154487 8.3125 2.3125 C8.98321533 2.50094482 9.65393066 2.68938965 10.3449707 2.88354492 C15.28675598 4.41154419 18.27701637 6.55407562 22 10 C19.15505099 10 17.58224265 9.63701253 14.9453125 8.72265625 C13.77548828 8.32336914 13.77548828 8.32336914 12.58203125 7.91601562 C11.77121094 7.63435547 10.96039063 7.35269531 10.125 7.0625 C8.52442672 6.50885065 6.92288621 5.95798828 5.3203125 5.41015625 C4.61148926 5.16402588 3.90266602 4.91789551 3.17236328 4.66430664 C-1.43776903 3.25453253 -5.8010705 2.83740871 -10.61328125 2.68359375 C-11.86044922 2.64169922 -13.10761719 2.59980469 -14.39257812 2.55664062 C-15.68615234 2.51732422 -16.97972656 2.47800781 -18.3125 2.4375 C-19.62541016 2.39431641 -20.93832031 2.35113281 -22.29101562 2.30664062 C-25.52724288 2.20072773 -28.76354458 2.09865115 -32 2 C-32 1.34 -32 0.68 -32 0 C-33.32 -0.33 -34.64 -0.66 -36 -1 C-25.23244492 -4.07754069 -10.67943453 -2.94291236 0 0 Z " fill="#CACACA" transform="translate(326,150)"/>
<path d="M0 0 C0 0.66 0 1.32 0 2 C-0.59425781 1.7834375 -1.18851562 1.566875 -1.80078125 1.34375 C-12.31419587 -2.18797249 -20.52846328 -1.92887046 -30.80078125 2.38671875 C-39.0167034 6.5297906 -45.96513191 12.67498975 -53.00390625 18.53125 C-55 20 -55 20 -57 20 C-55.67664195 16.42693326 -53.50673101 14.60084211 -50.5546875 12.27734375 C-48.81138894 10.90503917 -48.81138894 10.90503917 -46.8125 8.625 C-34.55527825 -2.81507363 -15.22950594 -9.7468838 0 0 Z " fill="#E2E2E2" transform="translate(325,130)"/>
<path d="M0 0 C0 0.66 0 1.32 0 2 C1.32 2.33 2.64 2.66 4 3 C3.42145264 3.13051758 2.84290527 3.26103516 2.24682617 3.39550781 C-14.42586278 7.1842275 -28.8198538 12.18146316 -44 20 C-45.33206832 20.66919072 -46.66462379 21.33743482 -48 22 C-44.66736083 13.59515725 -33.06159259 9.83025301 -25.21337891 6.43017578 C-17.29738106 3.1514157 -8.61681066 0 0 0 Z " fill="#E0E0E0" transform="translate(190,182)"/>
<path d="M0 0 C0.66 0.33 1.32 0.66 2 1 C-0.12603766 5.67728285 -3.35157476 7.93620076 -7.33984375 10.92578125 C-18.27183331 19.4498436 -28.2459332 29.4939654 -36 41 C-36.33 40.34 -36.66 39.68 -37 39 C-33.56317327 31.22978304 -27.820928 25.04734983 -22 19 C-21.21496094 18.16339844 -20.42992187 17.32679688 -19.62109375 16.46484375 C-13.5700944 10.1807401 -7.08970285 5.04319069 0 0 Z " fill="#E0E0E0" transform="translate(192,225)"/>
<path d="M0 0 C2.625 0.3125 2.625 0.3125 4.3125 1.9375 C7.39229817 7.51046811 7.83994678 12.07904334 7.625 18.3125 C6.305 18.6425 4.985 18.9725 3.625 19.3125 C-1.30750086 13.52956796 -3.98450025 9.08362825 -3.375 1.3125 C-2.375 0.3125 -2.375 0.3125 0 0 Z " fill="#EDEDED" transform="translate(268.375,296.6875)"/>
<path d="M0 0 C7.95658734 7.23962012 13.13770081 18.93568084 14.27734375 29.59375 C14.53161542 36.34720561 13.43618608 41.28539266 8.8125 46.4375 C8.214375 46.953125 7.61625 47.46875 7 48 C6.34 47.67 5.68 47.34 5 47 C5.64710938 46.17242187 6.29421875 45.34484375 6.9609375 44.4921875 C9.36602567 40.85797381 9.68979755 37.40905767 9.625 33.125 C9.62024658 32.39047607 9.61549316 31.65595215 9.6105957 30.89916992 C9.26459594 21.39888915 5.57105179 13.0416257 1.30078125 4.66796875 C0 2 0 2 0 0 Z " fill="#DEDEDE" transform="translate(287,287)"/>
<path d="M0 0 C7.23989128 2.85403287 11.53170848 11.65925799 15 18.25 C18.06310395 25.40755603 18.54927282 34.55835852 15.97265625 41.9453125 C15.49119141 42.96238281 15.49119141 42.96238281 15 44 C14.67 44 14.34 44 14 44 C13.97421875 42.80503906 13.9484375 41.61007812 13.921875 40.37890625 C13.60038424 28.14978647 13.60038424 28.14978647 9 17 C8.4225 16.00226563 7.845 15.00453125 7.25 13.9765625 C6.0467802 11.90602176 4.82678558 9.84508712 3.5859375 7.796875 C2.13776294 5.24295139 1.01382243 2.75036977 0 0 Z " fill="#D8D8D8" transform="translate(325,254)"/>
<path d="M0 0 C10.81935911 -0.96172081 20.61340033 4.6348476 29 11 C39.34836528 20.11273957 39.34836528 20.11273957 40 25 C36.50092943 23.49356643 34.17820566 21.43581135 31.4375 18.8125 C23.8801185 11.91999077 16.15677551 6.99653518 6.41015625 3.82421875 C4.14733623 3.05038565 2.10894933 2.12053224 0 1 C0 0.67 0 0.34 0 0 Z " fill="#DBDBDB" transform="translate(193,127)"/>
<path d="M0 0 C7.3277972 1.64875437 12.50209529 6.72996327 16.875 12.625 C21.10387259 19.3414447 22.84470893 26.55632022 21.61328125 34.4921875 C21.14773902 36.34775297 20.58430556 38.17834148 20 40 C19.67 40 19.34 40 19 40 C18.96261719 39.0821875 18.92523438 38.164375 18.88671875 37.21875 C18.22058692 24.78428908 15.93578769 16.41447031 6.609375 7.7890625 C5.00875485 6.39481161 3.39250053 5.01821001 1.7578125 3.6640625 C1.17773438 3.11492187 0.59765625 2.56578125 0 2 C0 1.34 0 0.68 0 0 Z " fill="#DFDFDF" transform="translate(348,203)"/>
<path d="M0 0 C0.79921875 0.00902344 1.5984375 0.01804688 2.421875 0.02734375 C3.02515625 0.03894531 3.6284375 0.05054688 4.25 0.0625 C4.25 0.7225 4.25 1.3825 4.25 2.0625 C3.26902344 2.29324219 2.28804688 2.52398437 1.27734375 2.76171875 C-0.08627092 3.08976295 -1.44952505 3.41930793 -2.8125 3.75 C-3.53260254 3.92354004 -4.25270508 4.09708008 -4.99462891 4.27587891 C-9.35397116 5.3602403 -13.52962676 6.6629729 -17.73583984 8.23486328 C-24.72019284 10.8325588 -29.67782776 11.67504363 -36.75 9.0625 C-36.75 8.7325 -36.75 8.4025 -36.75 8.0625 C-35.81800781 7.89234375 -34.88601562 7.7221875 -33.92578125 7.546875 C-26.26201168 6.09006137 -18.89135122 4.34233474 -11.45703125 1.9296875 C-7.47159656 0.65296816 -4.20033813 -0.06176968 0 0 Z " fill="#CECECE" transform="translate(289.75,149.9375)"/>
<path d="M0 0 C0 0.33 0 0.66 0 1 C-2.64 1.33 -5.28 1.66 -8 2 C-8 2.33 -8 2.66 -8 3 C-9.86978516 3.03867188 -9.86978516 3.03867188 -11.77734375 3.078125 C-23.35502252 3.42567258 -33.8328962 5.01214614 -45 8 C-46.66330752 8.34970986 -48.32867793 8.69085372 -50 9 C-46.74669354 5.11595045 -43.25786196 3.61069064 -38.5 2.25 C-37.74477051 2.0331958 -36.98954102 1.8163916 -36.21142578 1.59301758 C-24.44299716 -1.34504266 -12.02573996 -0.41764966 0 0 Z " fill="#D3D3D3" transform="translate(206,148)"/>
<path d="M0 0 C6.46760605 -0.69962085 12.09634492 0.31770282 18.25 2.1875 C18.92289062 2.3836792 19.59578125 2.5798584 20.2890625 2.78198242 C25.1339855 4.34090342 28.26404689 6.54830419 32 10 C29.21431657 10 27.72580973 9.68593412 25.15625 8.79296875 C24.40907715 8.53725098 23.6619043 8.2815332 22.89208984 8.01806641 C22.1027002 7.74397949 21.31331055 7.46989258 20.5 7.1875 C13.72343106 4.87610161 6.94849099 2.74477527 0 1 C0 0.67 0 0.34 0 0 Z " fill="#EEEEEE" transform="translate(316,150)"/>
<path d="M0 0 C5.93280108 4.91574947 9.25140037 11.57943724 10.53515625 19.16015625 C10.7750872 21.77912087 10.9440678 24.37118678 11 27 C8.99295829 24.99295829 8.39483993 23.84268071 7.37890625 21.26171875 C7.08306641 20.52373047 6.78722656 19.78574219 6.48242188 19.02539062 C6.02706055 17.86813477 6.02706055 17.86813477 5.5625 16.6875 C3.24399981 10.74276699 3.24399981 10.74276699 0.21484375 5.14453125 C-0.18605469 4.43683594 -0.58695312 3.72914063 -1 3 C-0.67 2.01 -0.34 1.02 0 0 Z " fill="#E0E0E0" transform="translate(278,288)"/>
<path d="M0 0 C3.02818852 2.68644938 4.94704936 5.88428374 7.0625 9.3125 C7.75472656 10.42238281 8.44695312 11.53226562 9.16015625 12.67578125 C11.80437456 17.45333918 13.32260727 21.51567634 13 27 C9.64694836 25.32347418 8.68308005 21.58215126 7.125 18.3125 C4.24480622 12.28984132 4.24480622 12.28984132 0.7265625 6.62890625 C-1 4 -1 4 -0.75 1.625 C-0.5025 1.08875 -0.255 0.5525 0 0 Z " fill="#DDDDDD" transform="translate(316,257)"/>
<path d="M0 0 C8.25481193 3.6688053 14.40137937 11.89933933 18 20 C17.67 20.66 17.34 21.32 17 22 C16.45472656 21.31035156 15.90945313 20.62070313 15.34765625 19.91015625 C10.23034493 13.53319906 4.91092613 7.65939736 -1 2 C-0.67 1.34 -0.34 0.68 0 0 Z " fill="#DBDBDB" transform="translate(340,211)"/>
<path d="M0 0 C0.66 0 1.32 0 2 0 C1.39816529 5.65724629 -0.09307186 10.65231022 -2 16 C-2.33 16.99 -2.66 17.98 -3 19 C-3.66 19 -4.32 19 -5 19 C-5.44753529 11.95131923 -4.43902141 7.18747628 -1 1 C-0.67 0.67 -0.34 0.34 0 0 Z " fill="#E7E7E7" transform="translate(164,273)"/>
<path d="M0 0 C1.98 0.99 1.98 0.99 4 2 C4.05425226 4.39614126 4.09379027 6.79103853 4.125 9.1875 C4.15013672 10.19780273 4.15013672 10.19780273 4.17578125 11.22851562 C4.21538674 15.28807807 3.80020002 18.34998815 2 22 C1.67 22 1.34 22 1 22 C0.67 14.74 0.34 7.48 0 0 Z " fill="#E0E0E0" transform="translate(338,276)"/>
<path d="M0 0 C0.99 0.99 1.98 1.98 3 3 C1.73252511 5.25195063 0.46117132 7.50155747 -0.8125 9.75 C-1.16892578 10.38421875 -1.52535156 11.0184375 -1.89257812 11.671875 C-3.75248735 14.94804537 -5.63839084 18.04985101 -8 21 C-8.56838149 15.29842321 -6.74379841 11.90810804 -4 7.125 C-3.6184375 6.43664062 -3.236875 5.74828125 -2.84375 5.0390625 C-1.90708892 3.35307255 -0.95506752 1.67563186 0 0 Z " fill="#DCDCDC" transform="translate(204,281)"/>
<path d="M0 0 C4.86896303 0.59619955 9.32790951 1.56976822 14 3 C13.67 3.66 13.34 4.32 13 5 C15.475 5.99 15.475 5.99 18 7 C13.9154674 8.72251754 10.63026304 7.07280563 6.75 5.5625 C6.1003125 5.31951172 5.450625 5.07652344 4.78125 4.82617188 C3.18383183 4.22714006 1.59139406 3.61485679 0 3 C0 2.01 0 1.02 0 0 Z " fill="#E8E8E8" transform="translate(223,154)"/>
<path d="M0 0 C2.5 0.125 2.5 0.125 3.5 1.125 C3.6875 3.5625 3.6875 3.5625 3.5 6.125 C2.84 6.785 2.18 7.445 1.5 8.125 C-2.03571429 7.58928571 -2.03571429 7.58928571 -3.5 6.125 C-3.625 3.625 -3.625 3.625 -3.5 1.125 C-2.5 0.125 -2.5 0.125 0 0 Z " fill="#D8D8D8" transform="translate(237.5,266.875)"/>
<path d="M0 0 C1.4540625 0.0309375 1.4540625 0.0309375 2.9375 0.0625 C3.625 1.875 3.625 1.875 3.9375 4.0625 C2.8125 5.875 2.8125 5.875 0.9375 7.0625 C-1.75 6.75 -1.75 6.75 -4.0625 6.0625 C-4.105221 4.39638095 -4.10313832 2.72867115 -4.0625 1.0625 C-3.0625 0.0625 -3.0625 0.0625 0 0 Z " fill="#EFEFEF" transform="translate(220.0625,191.9375)"/>
<path d="M0 0 C2.26274788 0.35355436 3.95088852 0.97544426 6 2 C5.67 3.65 5.34 5.3 5 7 C3.02 7 1.04 7 -1 7 C-1.625 4.625 -1.625 4.625 -2 2 C-1.34 1.34 -0.68 0.68 0 0 Z " fill="#DFDFDF" transform="translate(282,162)"/>
<path d="M0 0 C0.79921875 0.00902344 1.5984375 0.01804688 2.421875 0.02734375 C3.02515625 0.03894531 3.6284375 0.05054688 4.25 0.0625 C4.25 0.7225 4.25 1.3825 4.25 2.0625 C2.16952703 2.5946441 0.08547707 3.11281786 -2 3.625 C-3.16015625 3.91503906 -4.3203125 4.20507812 -5.515625 4.50390625 C-8.47090983 5.01429964 -9.99434101 5.09246165 -12.75 4.0625 C-8.55587869 0.61732892 -5.36548836 -0.07890424 0 0 Z " fill="#F3F3F3" transform="translate(289.75,149.9375)"/>
<path d="M0 0 C0 0.99 0 1.98 0 3 C-2.3359375 5.26171875 -2.3359375 5.26171875 -5.375 7.6875 C-6.37273437 8.49574219 -7.37046875 9.30398437 -8.3984375 10.13671875 C-11 12 -11 12 -13 12 C-11.64891639 8.90989789 -10.20982067 7.03089847 -7.625 4.875 C-7.03976562 4.37742188 -6.45453125 3.87984375 -5.8515625 3.3671875 C-3.97799995 1.98375524 -2.11017462 0.97607196 0 0 Z " fill="#F1F1F1" transform="translate(281,138)"/>
<path d="M0 0 C0 0.99 0 1.98 0 3 C-1.28650706 3.69710731 -2.57940665 4.38242876 -3.875 5.0625 C-4.95394531 5.63677734 -4.95394531 5.63677734 -6.0546875 6.22265625 C-6.69664062 6.47917969 -7.33859375 6.73570312 -8 7 C-8.66 6.67 -9.32 6.34 -10 6 C-9.67 5.34 -9.34 4.68 -9 4 C-9.66 3.67 -10.32 3.34 -11 3 C-9.73581754 2.30034557 -8.46334598 1.61565237 -7.1875 0.9375 C-6.47980469 0.55464844 -5.77210938 0.17179688 -5.04296875 -0.22265625 C-3 -1 -3 -1 0 0 Z " fill="#DDDDDD" transform="translate(235,204)"/>
<path d="M0 0 C-0.33 0.99 -0.66 1.98 -1 3 C-4.5625 4.1875 -4.5625 4.1875 -8 5 C-8.33 4.67 -8.66 4.34 -9 4 C-11.32817964 3.63239269 -13.6618385 3.29758419 -16 3 C-16 2.67 -16 2.34 -16 2 C-14.27192682 1.66104344 -12.54248026 1.32908475 -10.8125 1 C-9.84957031 0.814375 -8.88664062 0.62875 -7.89453125 0.4375 C-5.2065794 0.03122388 -2.71228981 -0.07933572 0 0 Z " fill="#D9D9D9" transform="translate(269,156)"/>
<path d="M0 0 C5.80054339 1.52450179 9.67635324 2.65326391 13 8 C8 6.33333333 3 4.66666667 -2 3 C-1.34 2.67 -0.68 2.34 0 2 C0 1.34 0 0.68 0 0 Z " fill="#CCCCCC" transform="translate(335,153)"/>
<path d="M0 0 C0.99 0 1.98 0 3 0 C3.08121924 1.60332791 3.13929134 3.20784026 3.1875 4.8125 C3.23970703 6.15248047 3.23970703 6.15248047 3.29296875 7.51953125 C3 10 3 10 0 13 C0 8.71 0 4.42 0 0 Z " fill="#D8D8D8" transform="translate(298,314)"/>
<path d="M0 0 C0.33 0.99 0.66 1.98 1 3 C-0.328125 5.04296875 -0.328125 5.04296875 -2.25 7.1875 C-3.18585938 8.26064453 -3.18585938 8.26064453 -4.140625 9.35546875 C-6 11 -6 11 -9 11 C-9 8 -9 8 -7.875 6.625 C-5.28118527 4.37702724 -2.65136286 2.18000946 0 0 Z " fill="#D7D7D7" transform="translate(223,259)"/>
<path d="M0 0 C0.66 0.33 1.32 0.66 2 1 C1.05125 1.7425 0.1025 2.485 -0.875 3.25 C-3.39865722 5.33142757 -4.57785092 7.05411976 -6 10 C-8.125 11.25 -8.125 11.25 -10 12 C-9.68861865 8.7220036 -9.32674163 7.31932973 -6.93359375 4.98046875 C-6.10988281 4.38878906 -5.28617188 3.79710937 -4.4375 3.1875 C-3.61121094 2.58292969 -2.78492188 1.97835937 -1.93359375 1.35546875 C-1.29550781 0.90816406 -0.65742188 0.46085938 0 0 Z " fill="#D9D9D9" transform="translate(240,242)"/>
<path d="M0 0 C0 0.99 0 1.98 0 3 C-4.95 4.485 -4.95 4.485 -10 6 C-10 4.68 -10 3.36 -10 2 C-8.71211992 1.46987262 -7.41953322 0.9511671 -6.125 0.4375 C-5.40570313 0.14746094 -4.68640625 -0.14257812 -3.9453125 -0.44140625 C-2 -1 -2 -1 0 0 Z " fill="#E0E0E0" transform="translate(244,200)"/>
<path d="M0 0 C0.33 0 0.66 0 1 0 C1.16834933 1.77067416 1.33461909 3.54154612 1.5 5.3125 C1.5928125 6.29863281 1.685625 7.28476562 1.78125 8.30078125 C2.21727884 13.6810657 2.21727884 13.6810657 0.90625 15.60546875 C-0.39583333 17.0703125 -1.69791667 18.53515625 -3 20 C-3.66 19.67 -4.32 19.34 -5 19 C-4.360625 18.278125 -3.72125 17.55625 -3.0625 16.8125 C0.29657973 11.91038011 -0.17022755 5.73666836 0 0 Z " fill="#B1B1B1" transform="translate(297,315)"/>
<path d="M0 0 C0.99 0.33 1.98 0.66 3 1 C1.8004855 4.59854349 0.72074777 5.18616815 -2.375 7.25 C-3.16648438 7.79140625 -3.95796875 8.3328125 -4.7734375 8.890625 C-7 10 -7 10 -10 9 C-9.0925 8.2575 -8.185 7.515 -7.25 6.75 C-4.6930577 4.62325416 -2.30889807 2.39770184 0 0 Z " fill="#E4E4E4" transform="translate(245,239)"/>
<path d="M0 0 C0.25 2.3125 0.25 2.3125 0 5 C-1.75 6.8125 -1.75 6.8125 -4 8 C-5.32 8 -6.64 8 -8 8 C-6.98782798 4.96348393 -3.72802409 0 0 0 Z " fill="#DEDEDE" transform="translate(272,339)"/>
<path d="M0 0 C4.2742558 1.5830577 6.26531794 4.50568404 9 8 C5 8 5 8 2.25 5.6875 C0 3 0 3 0 0 Z " fill="#EFEFEF" transform="translate(293,232)"/>
<path d="M0 0 C0.66 0.33 1.32 0.66 2 1 C2 1.66 2 2.32 2 3 C0.20856793 3.9795958 -1.58315304 4.9586633 -3.375 5.9375 C-4.37273437 6.48277344 -5.37046875 7.02804688 -6.3984375 7.58984375 C-7.92070346 8.4149759 -9.45128783 9.22564391 -11 10 C-9.54144353 6.31353859 -7.69770955 4.83856029 -4.375 2.75 C-3.55773437 2.22921875 -2.74046875 1.7084375 -1.8984375 1.171875 C-1.27195313 0.78515625 -0.64546875 0.3984375 0 0 Z " fill="#C3C3C3" transform="translate(153,194)"/>
<path d="M0 0 C3.12290635 0.48578543 5.99580359 0.9986012 9 2 C9 2.99 9 3.98 9 5 C5.28111761 4.49287967 2.26545761 3.88391785 -1 2 C-0.67 1.34 -0.34 0.68 0 0 Z " fill="#E9E9E9" transform="translate(279,179)"/>
<path d="M0 0 C1.32 0.33 2.64 0.66 4 1 C4.33 4.63 4.66 8.26 5 12 C2.32522069 9.32522069 1.3535886 6.507025 0 3 C0 2.01 0 1.02 0 0 Z " fill="#C2C2C2" transform="translate(284,303)"/>
<path d="M0 0 C2.88437779 1.29299694 4.87219421 2.65941363 7 5 C6.01 6.485 6.01 6.485 5 8 C3.02 6.35 1.04 4.7 -1 3 C-0.67 2.01 -0.34 1.02 0 0 Z " fill="#DBDBDB" transform="translate(287,227)"/>
<path d="M0 0 C2.94897721 2.74559948 5.26205705 5.34117274 7 9 C6.6875 11.3125 6.6875 11.3125 6 13 C4.43926745 10.65890118 3.13626133 8.43666597 1.875 5.9375 C1.34519531 4.89916016 1.34519531 4.89916016 0.8046875 3.83984375 C0 2 0 2 0 0 Z " fill="#CECECE" transform="translate(287,287)"/>
<path d="M0 0 C0.71484375 1.703125 0.71484375 1.703125 1 4 C-0.43359375 6.359375 -0.43359375 6.359375 -2.4375 8.75 C-3.42556641 9.94882812 -3.42556641 9.94882812 -4.43359375 11.171875 C-5.20896484 12.07679688 -5.20896484 12.07679688 -6 13 C-6.33 12.34 -6.66 11.68 -7 11 C-5.8203125 8.65234375 -5.8203125 8.65234375 -4.125 5.9375 C-3.57070312 5.03902344 -3.01640625 4.14054687 -2.4453125 3.21484375 C-1 1 -1 1 0 0 Z " fill="#C9C9C9" transform="translate(162,253)"/>
<path d="M0 0 C2.0625 0.4375 2.0625 0.4375 4 1 C3.67 2.65 3.34 4.3 3 6 C1.68 6 0.36 6 -1 6 C-1.042721 4.33388095 -1.04063832 2.66617115 -1 1 C-0.67 0.67 -0.34 0.34 0 0 Z " fill="#E7E7E7" transform="translate(270,188)"/>
<path d="M0 0 C3.27723056 1.05339554 4.60460094 2.63763259 6.3125 5.5 C7.1478125 7.2325 7.1478125 7.2325 8 9 C7.67 9.66 7.34 10.32 7 11 C5.82750647 9.54634731 4.66216184 8.08692581 3.5 6.625 C2.52546875 5.40683594 2.52546875 5.40683594 1.53125 4.1640625 C0 2 0 2 0 0 Z " fill="#BCBCBC" transform="translate(350,222)"/>
<path d="M0 0 C1.98 0.495 1.98 0.495 4 1 C3.67 2.65 3.34 4.3 3 6 C1.68 5.67 0.36 5.34 -1 5 C-0.67 3.35 -0.34 1.7 0 0 Z " fill="#DADADA" transform="translate(235,218)"/>
<path d="M0 0 C-2.88628401 1.57554035 -5.53342384 2.46276373 -8.75 3.125 C-9.54921875 3.29257813 -10.3484375 3.46015625 -11.171875 3.6328125 C-11.77515625 3.75398437 -12.3784375 3.87515625 -13 4 C-8.29969828 -0.85697844 -6.74378379 -1.12396397 0 0 Z " fill="#C0C0C0" transform="translate(169,153)"/>
<path d="M0 0 C2.78211944 0.37596209 4.5879284 0.67318459 6.8125 2.4375 C8 4 8 4 8 6 C5.21788056 5.62403791 3.4120716 5.32681541 1.1875 3.5625 C0 2 0 2 0 0 Z " fill="#CFCFCF" transform="translate(333,137)"/>
<path d="M0 0 C1.32 0.66 2.64 1.32 4 2 C3.67 3.32 3.34 4.64 3 6 C1.68 6 0.36 6 -1 6 C-1.042721 4.33388095 -1.04063832 2.66617115 -1 1 C-0.67 0.67 -0.34 0.34 0 0 Z " fill="#DEDEDE" transform="translate(264,323)"/>
<path d="M0 0 C2.6855594 2.6855594 3.06049974 5.37621328 4 9 C2.68 8.67 1.36 8.34 0 8 C-0.66 5.69 -1.32 3.38 -2 1 C-1.34 0.67 -0.68 0.34 0 0 Z " fill="#D2D2D2" transform="translate(283,295)"/>
<path d="M0 0 C2.64 0.33 5.28 0.66 8 1 C7.01 1.495 7.01 1.495 6 2 C6 2.66 6 3.32 6 4 C3.36 3.67 0.72 3.34 -2 3 C-1.34 2.01 -0.68 1.02 0 0 Z " fill="#D5D5D5" transform="translate(206,149)"/>
<path d="M0 0 C0 0.66 0 1.32 0 2 C1.32 2.33 2.64 2.66 4 3 C-0.455 3.495 -0.455 3.495 -5 4 C-5 3.34 -5 2.68 -5 2 C-5.99 1.67 -6.98 1.34 -8 1 C-5.10765685 0.17361624 -3.11257569 0 0 0 Z " fill="#D5D5D5" transform="translate(190,182)"/>
<path d="M0 0 C-0.33 1.32 -0.66 2.64 -1 4 C-2.65 4 -4.3 4 -6 4 C-6 3.34 -6 2.68 -6 2 C-7.32 1.67 -8.64 1.34 -10 1 C-6.59437148 0.22157062 -3.49234244 -0.09978121 0 0 Z " fill="#D9D9D9" transform="translate(239,172)"/>
<path d="M0 0 C0.66 0.33 1.32 0.66 2 1 C-0.43801653 5.75413223 -0.43801653 5.75413223 -3 6.875 C-5 7 -5 7 -8 6 C-5.36 4.02 -2.72 2.04 0 0 Z " fill="#D4D4D4" transform="translate(285,133)"/>
<path d="M0 0 C1.875 0.3125 1.875 0.3125 4 1 C6 4 6 4 6 7 C3.00675737 5.9024777 2.15389099 5.32317108 0.75 2.375 C0.5025 1.59125 0.255 0.8075 0 0 Z " fill="#E6E6E6" transform="translate(310,252)"/>
<path d="M0 0 C0.7425 0.0825 1.485 0.165 2.25 0.25 C1.92 1.24 1.59 2.23 1.25 3.25 C-1.39 3.58 -4.03 3.91 -6.75 4.25 C-3.42692308 0.31153846 -3.42692308 0.31153846 0 0 Z " fill="#EFEFEF" transform="translate(182.75,183.75)"/>
<path d="M0 0 C0.99 0.33 1.98 0.66 3 1 C2.67 2.32 2.34 3.64 2 5 C0.68 5.33 -0.64 5.66 -2 6 C-1.125 1.125 -1.125 1.125 0 0 Z " fill="#C2C2C2" transform="translate(329,304)"/>
<path d="M0 0 C0.66 0 1.32 0 2 0 C1.5205537 4.21912747 0.83374881 6.79663178 -2 10 C-2.17942163 6.05272412 -2.09350689 3.4019487 0 0 Z " fill="#C0C0C0" transform="translate(198,292)"/>
<path d="M0 0 C2.56616632 3.84924948 2.55097676 6.4349304 3 11 C1 10 1 10 -0.1875 7.75 C-1.08937081 4.69751418 -0.86361585 3.02265546 0 0 Z " fill="#CACACA" transform="translate(326,273)"/>
<path d="M0 0 C0.66 0 1.32 0 2 0 C1.67 2.31 1.34 4.62 1 7 C0.01 7 -0.98 7 -2 7 C-2.33 6.34 -2.66 5.68 -3 5 C-1.6875 2.375 -1.6875 2.375 0 0 Z " fill="#C9C9C9" transform="translate(164,273)"/>
<path d="M0 0 C0.33 1.32 0.66 2.64 1 4 C-0.65 5.32 -2.3 6.64 -4 8 C-4.33 6.68 -4.66 5.36 -5 4 C-3.35 2.68 -1.7 1.36 0 0 Z " fill="#CFCFCF" transform="translate(183,232)"/>
<path d="M0 0 C0 0.33 0 0.66 0 1 C-5.94 1.495 -5.94 1.495 -12 2 C-12 1.34 -12 0.68 -12 0 C-7.91556885 -1.53166168 -4.20544343 -0.63081652 0 0 Z " fill="#E8E8E8" transform="translate(178,151)"/>
<path d="M0 0 C1.98 0.495 1.98 0.495 4 1 C3.67 2.32 3.34 3.64 3 5 C1.68 4.67 0.36 4.34 -1 4 C-0.67 2.68 -0.34 1.36 0 0 Z " fill="#CACACA" transform="translate(217,163)"/>
<path d="M0 0 C3.125 0.6875 3.125 0.6875 6 2 C6.33 2.99 6.66 3.98 7 5 C3.7 4.01 0.4 3.02 -3 2 C-2.01 1.34 -1.02 0.68 0 0 Z " fill="#CBCBCB" transform="translate(318,127)"/>
<path d="M0 0 C2.4294516 3.6441774 2.16179575 5.71241272 2 10 C1.34 10 0.68 10 0 10 C-1.125 2.25 -1.125 2.25 0 0 Z " fill="#5C5C5C" transform="translate(205,321)"/>
<path d="M0 0 C2.62187494 1.04874998 3.79371361 1.64931313 5.25 4.125 C5.4975 4.74375 5.745 5.3625 6 6 C5.01 6.33 4.02 6.66 3 7 C0 2.25 0 2.25 0 0 Z " fill="#CACACA" transform="translate(325,254)"/>
<path d="M0 0 C2.88575819 0.39803561 3.82189513 0.79009069 5.75 3.0625 C6.1625 3.701875 6.575 4.34125 7 5 C6.01 5.33 5.02 5.66 4 6 C2.62437146 4.71034824 1.29233607 3.37310707 0 2 C0 1.34 0 0.68 0 0 Z " fill="#CDCDCD" transform="translate(345,217)"/>
<path d="M0 0 C0.66 0.33 1.32 0.66 2 1 C-0.31 3.31 -2.62 5.62 -5 8 C-5.66 7.67 -6.32 7.34 -7 7 C-2.25 1.125 -2.25 1.125 0 0 Z " fill="#9E9E9E" transform="translate(152,209)"/>
<path d="M0 0 C1.65 0 3.3 0 5 0 C4.67 0.66 4.34 1.32 4 2 C6.475 2.99 6.475 2.99 9 4 C6.21176345 5.0326802 5.1322726 5.04509293 2.25 4.0625 C1.5075 3.711875 0.765 3.36125 0 3 C0 2.01 0 1.02 0 0 Z " fill="#CFCFCF" transform="translate(232,157)"/>
<path d="M0 0 C3.16115776 1.36983503 3.9927092 1.9890638 6 5 C6 5.99 6 6.98 6 8 C5.34 8 4.68 8 4 8 C0 2.58823529 0 2.58823529 0 0 Z " fill="#BDBDBD" transform="translate(349,151)"/>
<path d="M0 0 C0.66 0.33 1.32 0.66 2 1 C0.16536528 3.53354319 -1.63248912 5.94129488 -4 8 C-4.66 8 -5.32 8 -6 8 C-4.55746343 4.63408134 -2.66735273 2.48952921 0 0 Z " fill="#D2D2D2" transform="translate(274,142)"/>
<path d="M0 0 C1.98 0 3.96 0 6 0 C6.33 0.99 6.66 1.98 7 3 C4.69 3 2.38 3 0 3 C0 2.01 0 1.02 0 0 Z " fill="#E2E2E2" transform="translate(190,181)"/>
<path d="M0 0 C1 3 1 3 0.0625 5.1875 C-0.4634375 6.0846875 -0.4634375 6.0846875 -1 7 C-1.99 7 -2.98 7 -4 7 C-2.92598892 4.08482708 -2.22189824 2.22189824 0 0 Z " fill="#DADADA" transform="translate(163,278)"/>
<path d="M0 0 C0.66 0 1.32 0 2 0 C1.67 1.65 1.34 3.3 1 5 C0.01 5.33 -0.98 5.66 -2 6 C-1.125 1.125 -1.125 1.125 0 0 Z " fill="#CECECE" transform="translate(168,266)"/>
<path d="M0 0 C0.33 1.32 0.66 2.64 1 4 C-0.65 4.66 -2.3 5.32 -4 6 C-3.67 5.01 -3.34 4.02 -3 3 C-3.66 2.67 -4.32 2.34 -5 2 C-2 0 -2 0 0 0 Z " fill="#BFBFBF" transform="translate(229,205)"/>
</svg>
